<?xml version="1.0"?>
<svg xmlns="http://www.w3.org/2000/svg" xmlns:xlink="http://www.w3.org/1999/xlink" version="1.1" id="Layer_1" x="0px" y="0px" viewBox="0 0 421.601 421.601" style="enable-background:new 0 0 421.601 421.601;" xml:space="preserve" width="512px" height="512px" class=""><g><g>
	<rect x="32.663" y="94.785" style="fill:#C8BD97" width="356.73" height="300.78" data-original="#76DD91" class="active-path" data-old_color="#C8BD98"/>
	<g>
		<path style="fill:#8D6639" d="M42.163,149.015c0,7.37-3.77,13.85-9.5,17.61v-17.61H42.163z" data-original="#62C479" class="" data-old_color="#8C6539"/>
		<path style="fill:#8D6639" d="M84.318,149.012c0,11.65-9.436,21.086-21.086,21.086c-11.637,0-21.073-9.436-21.073-21.086H84.318z    " data-original="#62C479" class="" data-old_color="#8C6539"/>
		<path style="fill:#8D6639" d="M126.477,149.012c0,11.65-9.436,21.086-21.073,21.086c-11.65,0-21.086-9.436-21.086-21.086H126.477    z" data-original="#62C479" class="" data-old_color="#8C6539"/>
		<path style="fill:#8D6639" d="M168.636,149.012c0,11.65-9.436,21.086-21.073,21.086c-11.65,0-21.086-9.436-21.086-21.086H168.636    z" data-original="#62C479" class="" data-old_color="#8C6539"/>
		<path style="fill:#8D6639" d="M210.795,149.012c0,11.65-9.436,21.086-21.073,21.086c-11.65,0-21.086-9.436-21.086-21.086H210.795    z" data-original="#62C479" class="" data-old_color="#8C6539"/>
		<path style="fill:#8D6639" d="M252.966,149.012c0,11.65-9.448,21.086-21.086,21.086c-11.637,0-21.086-9.436-21.086-21.086    H252.966z" data-original="#62C479" class="" data-old_color="#8C6539"/>
		<path style="fill:#8D6639" d="M295.125,149.012c0,11.65-9.436,21.086-21.086,21.086c-11.637,0-21.073-9.436-21.073-21.086    H295.125z" data-original="#62C479" class="" data-old_color="#8C6539"/>
		<path style="fill:#8D6639" d="M337.284,149.012c0,11.65-9.436,21.086-21.086,21.086c-11.637,0-21.073-9.436-21.073-21.086    H337.284z" data-original="#62C479" class="" data-old_color="#8C6539"/>
		<path style="fill:#8D6639" d="M379.443,149.012c0,11.65-9.436,21.086-21.086,21.086c-11.637,0-21.073-9.436-21.073-21.086    H379.443z" data-original="#62C479" class="" data-old_color="#8C6539"/>
		<path style="fill:#8D6639" d="M389.393,149.015v17.9c-5.98-3.72-9.95-10.34-9.95-17.9H389.393z" data-original="#62C479" class="" data-old_color="#8C6539"/>
	</g>
	<rect x="32.663" y="94.785" style="fill:#8D6639" width="356.73" height="54.227" data-original="#62C479" class="" data-old_color="#8C6539"/>
	<rect x="49.032" y="177.123" style="fill:#684E17" width="116.211" height="218.443" data-original="#4EAF60" class="" data-old_color="#674D17"/>
	<rect x="54.032" y="182.123" style="fill:#8D6639" width="106.211" height="208.443" data-original="#62C479" class="" data-old_color="#8C6539"/>
	<rect x="62.032" y="186.124" style="fill:#C8BD97" width="90.211" height="126" data-original="#76DD91" class="active-path" data-old_color="#C8BD98"/>
	<rect x="68.032" y="192.124" style="fill:#2D4151;" width="78.211" height="114" data-original="#2D4151" class=""/>
	<rect x="62.032" y="318.123" style="fill:#C8BD97" width="90.211" height="64.443" data-original="#76DD91" class="active-path" data-old_color="#C8BD98"/>
	<rect x="67.032" y="323.623" style="fill:#8D6639" width="80.211" height="53.443" data-original="#62C479" class="" data-old_color="#8C6539"/>
	<g>
		<g>
			<rect x="76.032" y="360.267" style="fill:#C8BD97" width="62.211" height="8.022" data-original="#76DD91" class="active-path" data-old_color="#C8BD98"/>
		</g>
		<g>
			<rect x="76.032" y="333.4" style="fill:#C8BD97" width="62.211" height="8.022" data-original="#76DD91" class="active-path" data-old_color="#C8BD98"/>
		</g>
		<g>
			<rect x="76.032" y="346.834" style="fill:#C8BD97" width="62.211" height="8.022" data-original="#76DD91" class="active-path" data-old_color="#C8BD98"/>
		</g>
	</g>
	<g>
		<circle style="fill:#D8D4D5;" cx="106.857" cy="253.533" r="2.469" data-original="#D8D4D5"/>
		<g>
			<polygon style="fill:#C1B9BC;" points="118.807,262.889 106.897,253.871 95.535,262.668 95.199,262.234 106.894,253.18      119.139,262.451    " data-original="#C1B9BC"/>
		</g>
		<path style="fill:#D25151" d="M124.019,270.43c0,2.201-1.8,4-4,4H94.256c-2.2,0-4-1.799-4-4v-5.293c0-2.199,1.8-4,4-4h25.763    c2.2,0,4,1.801,4,4V270.43z" data-original="#C12525" class="" data-old_color="#D14F4F"/>
		<g>
			<path style="fill:#FAFCFC;" d="M99.083,263.527c0.601,0,1.112,0.213,1.533,0.636s0.631,0.933,0.631,1.529v4.935     c0,0.602-0.212,1.112-0.635,1.533c-0.423,0.421-0.933,0.631-1.529,0.631c-0.601,0-1.111-0.211-1.529-0.635     c-0.418-0.423-0.628-0.933-0.628-1.529v-4.935c0-0.601,0.212-1.112,0.635-1.533C97.983,263.738,98.491,263.527,99.083,263.527z      M99.826,265.664c0-0.217-0.076-0.4-0.227-0.553c-0.152-0.151-0.335-0.227-0.552-0.227c-0.216,0-0.401,0.075-0.555,0.227     s-0.231,0.336-0.231,0.553v4.949c0,0.216,0.077,0.4,0.231,0.551c0.154,0.152,0.339,0.228,0.555,0.228     c0.217,0,0.4-0.075,0.552-0.228c0.151-0.15,0.227-0.335,0.227-0.551V265.664z" data-original="#FAFCFC"/>
			<path style="fill:#FAFCFC;" d="M104.601,263.643c0.664,0,1.193,0.209,1.587,0.628c0.365,0.398,0.548,0.908,0.548,1.529v1.313     c0,0.597-0.208,1.106-0.624,1.529c-0.416,0.424-0.92,0.635-1.512,0.635h-0.786v3.406h-1.364v-9.04L104.601,263.643     L104.601,263.643z M105.417,265.822c0-0.236-0.071-0.426-0.213-0.57s-0.331-0.217-0.566-0.217h-0.822v2.894h0.822     c0.217,0,0.4-0.077,0.552-0.231c0.151-0.153,0.227-0.338,0.227-0.555V265.822z" data-original="#FAFCFC"/>
			<path style="fill:#FAFCFC;" d="M107.826,272.684v-9.047h3.881v1.37h-2.518v2.468h1.84v1.371h-1.84v2.467h2.518v1.371H107.826z" data-original="#FAFCFC"/>
			<path style="fill:#FAFCFC;" d="M114.176,263.637l1.81,6.08v-6.08h1.364v9.047h-1.465l-1.875-5.793v5.793h-1.364v-9.047H114.176z" data-original="#FAFCFC"/>
		</g>
	</g>
	<rect x="174.006" y="177.123" style="fill:#684E17" width="196.703" height="175.912" data-original="#4EAF60" class="" data-old_color="#674D17"/>
	<rect x="179.006" y="182.123" style="fill:#8D6639" width="186.703" height="165.912" data-original="#62C479" class="" data-old_color="#8C6539"/>
	<rect x="183.003" y="186.125" style="fill:#2D4151;" width="178.71" height="157.58" data-original="#2D4151" class=""/>
	<g>
		<path style="fill:#3366B2" d="M42.159,141.987c0,11.65-9.436,21.086-21.086,21.086C9.436,163.073,0,153.637,0,141.987" data-original="#DBA52C" class="" data-old_color="#3467B2"/>
		<path style="fill:#D1D1D1;" d="M84.318,141.987c0,11.65-9.436,21.086-21.086,21.086c-11.637,0-21.073-9.436-21.073-21.086" data-original="#D1D1D1" class=""/>
		<path style="fill:#3366B2" d="M126.477,141.987c0,11.65-9.436,21.086-21.073,21.086c-11.65,0-21.086-9.436-21.086-21.086" data-original="#DBA52C" class="" data-old_color="#3467B2"/>
		<path style="fill:#D1D1D1;" d="M168.636,141.987c0,11.65-9.436,21.086-21.073,21.086c-11.65,0-21.086-9.436-21.086-21.086" data-original="#D1D1D1" class=""/>
		<path style="fill:#3366B2" d="M210.795,141.987c0,11.65-9.436,21.086-21.073,21.086c-11.65,0-21.086-9.436-21.086-21.086" data-original="#DBA52C" class="" data-old_color="#3467B2"/>
		<path style="fill:#D1D1D1;" d="M252.966,141.987c0,11.65-9.448,21.086-21.086,21.086c-11.637,0-21.086-9.436-21.086-21.086" data-original="#D1D1D1" class=""/>
		<path style="fill:#3366B2" d="M295.125,141.987c0,11.65-9.436,21.086-21.086,21.086c-11.637,0-21.073-9.436-21.073-21.086" data-original="#DBA52C" class="" data-old_color="#3467B2"/>
		<path style="fill:#D1D1D1;" d="M337.284,141.987c0,11.65-9.436,21.086-21.086,21.086c-11.637,0-21.073-9.436-21.073-21.086" data-original="#D1D1D1" class=""/>
		<path style="fill:#3366B2" d="M379.443,141.987c0,11.65-9.436,21.086-21.086,21.086c-11.637,0-21.073-9.436-21.073-21.086" data-original="#DBA52C" class="" data-old_color="#3467B2"/>
		<path style="fill:#D1D1D1;" d="M421.601,141.987c0,11.65-9.436,21.086-21.073,21.086c-11.65,0-21.086-9.436-21.086-21.086" data-original="#D1D1D1" class=""/>
	</g>
	<g>
		<polygon style="fill:#4D80CC" points="68.292,77.29 32.666,77.29 0,141.987 42.159,141.987   " data-original="#F9C032" class="" data-old_color="#4C80CC"/>
		<polygon style="fill:#E6E6E6;" points="103.918,77.29 68.292,77.29 42.159,141.987 84.318,141.987   " data-original="#E6E6E6" class=""/>
		<polygon style="fill:#4D80CC" points="139.544,77.29 103.918,77.29 84.318,141.987 126.477,141.987   " data-original="#F9C032" class="" data-old_color="#4C80CC"/>
		<polygon style="fill:#E6E6E6;" points="175.17,77.29 139.544,77.29 126.477,141.987 168.636,141.987   " data-original="#E6E6E6" class=""/>
		<polygon style="fill:#4D80CC" points="210.796,77.29 175.17,77.29 168.636,141.987 210.795,141.987   " data-original="#F9C032" class="" data-old_color="#4C80CC"/>
		<polygon style="fill:#E6E6E6;" points="246.421,77.29 210.796,77.29 210.795,141.987 252.954,141.987   " data-original="#E6E6E6" class=""/>
		<polygon style="fill:#4D80CC" points="282.047,77.29 246.421,77.29 252.954,141.987 295.113,141.987   " data-original="#F9C032" class="" data-old_color="#4C80CC"/>
		<polygon style="fill:#E6E6E6;" points="317.673,77.29 282.047,77.29 295.113,141.987 337.272,141.987   " data-original="#E6E6E6" class=""/>
		<polygon style="fill:#E6E6E6;" points="388.935,77.29 353.309,77.29 379.443,141.987 421.601,141.987   " data-original="#E6E6E6" class=""/>
		<polygon style="fill:#4D80CC" points="353.309,77.29 317.683,77.29 337.284,141.987 379.443,141.987   " data-original="#F9C032" class="" data-old_color="#4C80CC"/>
	</g>
	<g>
		<rect x="268.858" y="299.535" style="fill:#D8722E;" width="7" height="44.17" data-original="#D8722E" class=""/>
		<polygon style="fill:#E6E6E6;" points="265.64,294.535 272.362,282.892 279.084,294.535   " data-original="#E6E6E6" class=""/>
		<g>
			<path style="fill:#E6E6E6;" d="M255.112,288.66c0,3.797-3.078,6.875-6.875,6.875s-6.875-3.078-6.875-6.875" data-original="#E6E6E6" class=""/>
			<path style="fill:#E6E6E6;" d="M303.362,288.66c0,3.797-3.078,6.875-6.875,6.875s-6.875-3.078-6.875-6.875" data-original="#E6E6E6" class=""/>
		</g>
		<rect x="268.858" y="301.035" style="fill:#C6622A;" width="7" height="7" data-original="#C6622A" class=""/>
		<path style="fill:#D8722E;" d="M306.862,301.535h-69c-1.933,0-3.5-1.567-3.5-3.5l0,0c0-1.933,1.567-3.5,3.5-3.5h69    c1.933,0,3.5,1.567,3.5,3.5l0,0C310.362,299.968,308.795,301.535,306.862,301.535z" data-original="#D8722E" class=""/>
		<g>
			<g>
				<rect x="214.645" y="327.035" style="fill:#D8722E;" width="7" height="16.667" data-original="#D8722E" class=""/>
				<rect x="235.321" y="327.035" style="fill:#D8722E;" width="7" height="16.667" data-original="#D8722E" class=""/>
				<rect x="235.321" y="326.535" style="fill:#C6622A;" width="7" height="7" data-original="#C6622A" class=""/>
				<rect x="214.645" y="326.535" style="fill:#C6622A;" width="7" height="7" data-original="#C6622A" class=""/>
				<path style="fill:#D8722E;" d="M242.123,321.535h-22.978v-33.469c0-1.895-1.419-3.594-3.312-3.693      c-2.018-0.106-3.688,1.5-3.688,3.495v33.667v4.612c0,1.319,1.069,2.388,2.388,2.388h4.612h23.176      c1.995,0,3.601-1.67,3.495-3.688C245.717,322.954,244.018,321.535,242.123,321.535z" data-original="#D8722E" class=""/>
			</g>
			<g>
				<rect x="323.071" y="327.035" style="fill:#D8722E;" width="7" height="16.667" data-original="#D8722E" class=""/>
				<rect x="302.395" y="327.035" style="fill:#D8722E;" width="7" height="16.667" data-original="#D8722E" class=""/>
				<rect x="302.395" y="326.535" style="fill:#C6622A;" width="7" height="7" data-original="#C6622A" class=""/>
				<rect x="323.071" y="326.535" style="fill:#C6622A;" width="7" height="7" data-original="#C6622A" class=""/>
				<path style="fill:#D8722E;" d="M328.883,284.373c-1.893,0.099-3.312,1.798-3.312,3.693v33.469h-22.978      c-1.895,0-3.594,1.419-3.693,3.312c-0.106,2.018,1.5,3.688,3.495,3.688h23.176h4.612c1.319,0,2.388-1.069,2.388-2.388v-4.612      v-33.667C332.571,285.873,330.901,284.268,328.883,284.373z" data-original="#D8722E" class=""/>
			</g>
		</g>
	</g>
	<path style="fill:#4D80CC" d="M192.373,284.865c13.69,6.19,23.69,25.58,23.69,48.55c0,3.53-0.24,6.97-0.69,10.29h-32.37v-157.58   h64.6c0.79,4.83,1.25,9.81,1.34,14.91c0.01,0.63,0.02,1.27,0.02,1.91C248.963,244.665,224.363,279.155,192.373,284.865z" data-original="#F9C032" class="" data-old_color="#4C80CC"/>
	<path style="fill:#4D80CC" d="M361.713,186.125v157.58h-32.37c-0.45-3.32-0.69-6.76-0.69-10.29c0-22.97,10-42.36,23.69-48.55   c-31.99-5.71-56.59-40.2-56.59-81.92c0-0.64,0.01-1.28,0.02-1.91c0.09-5.1,0.55-10.08,1.34-14.91L361.713,186.125L361.713,186.125z   " data-original="#F9C032" class="" data-old_color="#4C80CC"/>
	<rect x="183.003" y="283.38" style="fill:#D8722E;" width="15.557" height="5.374" data-original="#D8722E" class=""/>
	<rect x="346.156" y="283.38" style="fill:#D8722E;" width="15.557" height="5.374" data-original="#D8722E" class=""/>
	<path style="fill:#3366B2" d="M247.603,186.125c0.79,4.83,1.25,9.81,1.34,14.91h-65.94v-14.91H247.603z" data-original="#DBA52C" class="" data-old_color="#3467B2"/>
	<rect x="269.858" y="186.125" style="fill:#D8722E;" width="5" height="50.91" data-original="#D8722E" class=""/>
	<path style="fill:#3366B2" d="M362.033,186.125v14.91h-66.26c0.09-5.1,0.55-10.08,1.34-14.91H362.033z" data-original="#DBA52C" class="" data-old_color="#3467B2"/>
	<path style="fill:#4D80CC" d="M295.796,250.754c0-12.944-10.493-23.438-23.438-23.438s-23.438,10.493-23.438,23.438" data-original="#F9C032" class="" data-old_color="#4C80CC"/>
	<path style="opacity:0.2;fill:#FCFAFA;enable-background:new    ;" d="M190.412,337.018h167.591v-95.871   C358.001,241.147,331.089,325.274,190.412,337.018z" data-original="#FCFAFA" class=""/>
	<rect x="73.864" y="26.035" style="fill:#C8BD97" width="285.339" height="75" data-original="#76DD91" class="active-path" data-old_color="#C8BD98"/>
	<rect x="81.18" y="33.352" style="fill:#4D80CC" width="270.706" height="60.367" data-original="#F9C032" class="" data-old_color="#4C80CC"/>
	<rect x="88.493" y="40.665" style="fill:#8D6639" width="256.08" height="45.74" data-original="#62C479" class="" data-old_color="#8C6539"/>
	<rect x="95.653" y="47.825" style="fill:#C8BD97" width="248.92" height="38.58" data-original="#76DD91" class="active-path" data-old_color="#C8BD98"/>
	<rect x="174.006" y="358.035" style="fill:#684E17" width="196.703" height="32.531" data-original="#4EAF60" class="" data-old_color="#674D17"/>
	<rect x="179.006" y="363.035" style="fill:#C8BD97" width="186.703" height="22.531" data-original="#76DD91" class="active-path" data-old_color="#C8BD98"/>
	<path style="opacity:0.2;fill:#FCFAFA;enable-background:new    ;" d="M144.009,212.937v91H91.952   C91.952,303.937,137.632,289.323,144.009,212.937z" data-original="#FCFAFA" class=""/>
</g></g> </svg>
