<?xml version="1.0"?>
<svg xmlns="http://www.w3.org/2000/svg" xmlns:xlink="http://www.w3.org/1999/xlink" version="1.1" id="Layer_1" x="0px" y="0px" viewBox="0 0 512 512" style="enable-background:new 0 0 512 512;" xml:space="preserve" width="512px" height="512px" class=""><g transform="matrix(-1 0 0 1 512 0)"><path style="fill:#EE8700" d="M442.182,139.636h-69.818h-46.545h-46.545h-46.545h-46.545h-69.818  c-12.853,0-23.273,10.42-23.273,23.273v201.697c0,12.853,10.42,23.273,23.273,23.273h162.909h162.909  c12.853,0,23.273-10.42,23.273-23.273V162.909C465.455,150.056,455.035,139.636,442.182,139.636z" data-original="#FFB655" class="active-path" data-old_color="#FFB655"/><path style="fill:#806749;" d="M488.729,46.572L46.545,46.547V23.273C46.545,10.42,36.125,0,23.273,0S0,10.42,0,23.273v46.544  v418.911C0,501.58,10.42,512,23.273,512s23.273-10.42,23.273-23.273V93.092L186.182,93.1v46.536h46.545V93.117h93.091v46.519h46.545  V93.111l116.362,0.006c0.002,0,0,0,0.002,0c12.851,0,23.273-10.42,23.273-23.271C512,56.992,501.582,46.572,488.729,46.572z" data-original="#806749" class=""/><path style="fill:#EE8700" d="M232.727,139.636h-46.545h-69.818c-12.853,0-23.273,10.42-23.273,23.273v201.697  c0,12.853,10.42,23.273,23.273,23.273h162.909V139.636H232.727z" data-original="#EE8700" class=""/></g> </svg>
