<?xml version="1.0"?>
<svg xmlns="http://www.w3.org/2000/svg" xmlns:xlink="http://www.w3.org/1999/xlink" version="1.1" id="Capa_1" x="0px" y="0px" viewBox="0 0 512 512" style="enable-background:new 0 0 512 512;" xml:space="preserve" width="512px" height="512px" class=""><g transform="matrix(-1 0 0 1 512 0)"><path style="fill:#E8F7FF" d="M471.365,264.127H81.27c-8.977,0-16.254-7.277-16.254-16.254l0,0c0-8.977,7.277-16.254,16.254-16.254  h390.095c8.977,0,16.254,7.277,16.254,16.254l0,0C487.619,256.85,480.342,264.127,471.365,264.127z" data-original="#E8F7FF" class="active-path" data-old_color="#B1C5CD"/><path style="fill:#E8F7FF" d="M471.365,264.127H81.27c-4.488,0-8.127-3.639-8.127-8.127l0,0c0-4.488,3.639-8.127,8.127-8.127  h390.095c4.488,0,8.127,3.639,8.127,8.127l0,0C479.492,260.488,475.853,264.127,471.365,264.127z" data-original="#D2F0FF" class="" data-old_color="#FF00F9"/><g>
	<path style="fill:#6F6571;" d="M138.159,190.984c-17.929,0-32.508-14.579-32.508-32.508s14.579-32.508,32.508-32.508   s32.508,14.579,32.508,32.508S156.087,190.984,138.159,190.984z M138.159,142.222c-8.96,0-16.254,7.294-16.254,16.254   c0,8.96,7.294,16.254,16.254,16.254c8.96,0,16.254-7.294,16.254-16.254S147.119,142.222,138.159,142.222z" data-original="#6F6571" class=""/>
	<path style="fill:#6F6571;" d="M414.476,190.984c-17.929,0-32.508-14.579-32.508-32.508s14.579-32.508,32.508-32.508   c17.929,0,32.508,14.579,32.508,32.508S432.405,190.984,414.476,190.984z M414.476,142.222c-8.96,0-16.254,7.294-16.254,16.254   c0,8.96,7.294,16.254,16.254,16.254s16.254-7.294,16.254-16.254S423.436,142.222,414.476,142.222z" data-original="#6F6571" class=""/>
</g><rect x="8.127" y="109.71" style="fill:#9C969E;" width="479.49" height="40.635" data-original="#9C969E" class=""/><path style="fill:#867E88;" d="M487.619,109.714H8.127v24.381h455.111c0,13.465,10.916,24.381,24.381,24.381  S512,147.561,512,134.095C512,120.63,501.084,109.714,487.619,109.714z" data-original="#867E88" class=""/><g>
	<path style="fill:#9C969E;" d="M138.159,280.381c-4.492,0-8.127-3.635-8.127-8.127V174.73c0-4.492,3.635-8.127,8.127-8.127   s8.127,3.635,8.127,8.127v97.524C146.286,276.746,142.651,280.381,138.159,280.381z" data-original="#9C969E" class=""/>
	<path style="fill:#9C969E;" d="M414.476,280.381c-4.492,0-8.127-3.635-8.127-8.127V174.73c0-4.492,3.635-8.127,8.127-8.127   s8.127,3.635,8.127,8.127v97.524C422.603,276.746,418.968,280.381,414.476,280.381z" data-original="#9C969E" class=""/>
</g><path style="fill:#6F6571;" d="M8.127,174.73c-4.492,0-8.127-3.635-8.127-8.127v-65.016c0-4.492,3.635-8.127,8.127-8.127  s8.127,3.635,8.127,8.127v65.016C16.254,171.095,12.619,174.73,8.127,174.73z" data-original="#6F6571" class=""/><path style="fill:#E8F7FF" d="M495.746,117.841H24.381c-8.977,0-16.254-7.277-16.254-16.254l0,0  c0-8.977,7.277-16.254,16.254-16.254h471.365c8.977,0,16.254,7.277,16.254,16.254l0,0C512,110.564,504.723,117.841,495.746,117.841z  " data-original="#E8F7FF" class="active-path" data-old_color="#B1C5CD"/><path style="fill:#E8F7FF" d="M495.746,117.841H24.381c-4.488,0-8.127-3.639-8.127-8.127l0,0c0-4.488,3.639-8.127,8.127-8.127  h471.365c4.488,0,8.127,3.639,8.127,8.127l0,0C503.873,114.203,500.234,117.841,495.746,117.841z" data-original="#D2F0FF" class="" data-old_color="#FF00F9"/><path style="fill:#C88982;" d="M463.238,264.127H89.397c-8.977,0-16.254,7.278-16.254,16.254v130.032  c0,8.977,7.277,16.254,16.254,16.254h373.841c8.977,0,16.254-7.277,16.254-16.254V280.381  C479.492,271.405,472.215,264.127,463.238,264.127z" data-original="#C88982" class=""/><g>
	<path style="fill:#AF6964" d="M121.905,304.762H73.143v-16.254h48.762c4.488,0,8.127,3.639,8.127,8.127l0,0   C130.032,301.123,126.393,304.762,121.905,304.762z" data-original="#AF6964" class=""/>
	<path style="fill:#AF6964" d="M186.921,304.762h-16.254c-4.488,0-8.127-3.639-8.127-8.127l0,0c0-4.488,3.639-8.127,8.127-8.127   h16.254c4.488,0,8.127,3.639,8.127,8.127l0,0C195.048,301.123,191.409,304.762,186.921,304.762z" data-original="#AF6964" class=""/>
	<path style="fill:#AF6964" d="M89.397,337.27H73.143v-16.254h16.254c4.488,0,8.127,3.639,8.127,8.127l0,0   C97.524,333.631,93.885,337.27,89.397,337.27z" data-original="#AF6964" class=""/>
	<path style="fill:#AF6964" d="M430.73,386.032h48.762v16.254H430.73c-4.488,0-8.127-3.639-8.127-8.127l0,0   C422.603,389.67,426.242,386.032,430.73,386.032z" data-original="#AF6964" class=""/>
	<path style="fill:#AF6964" d="M398.222,402.286h-16.254c-4.488,0-8.127-3.639-8.127-8.127l0,0c0-4.488,3.639-8.127,8.127-8.127   h16.254c4.488,0,8.127,3.639,8.127,8.127l0,0C406.349,398.647,402.711,402.286,398.222,402.286z" data-original="#AF6964" class=""/>
</g></g> </svg>
